<?xml version="1.0" encoding="utf-8"?>
<svg viewBox="150.718 168.688 230 76.622" xmlns="http://www.w3.org/2000/svg">
  <defs>
    <linearGradient data-v-fde0c5aa="" gradientTransform="rotate(25)" id="fa43a7e7-befe-4f9b-9814-f0df99d8c15c" x1="0%" y1="0%" x2="100%" y2="0%">
      <stop data-v-fde0c5aa="" offset="0" stop-color="#3E6E81" stop-opacity="1"/>
      <stop data-v-fde0c5aa="" offset="1" stop-color="#4587A1" stop-opacity="1"/>
    </linearGradient>
  </defs>
  <g data-v-fde0c5aa="" id="797f595f-4ec2-4880-9e4c-37677c86ce69" fill="#000000" transform="matrix(2.812601, 0, 0, 2.812601, 220.208971, 168.929059)">
    <path d="M6.86 5.08L6.86 13.13L3.15 13.13L3.15 5.08L1.19 5.08L1.19 14.01L2.81 14.95L7.20 14.95L8.82 14.01L8.82 5.08ZM11.20 14.88L13.16 14.88L13.16 11.33L16.37 11.33L17.99 10.39L17.99 6.02L16.37 5.08L11.20 5.08ZM13.16 6.76L16.03 6.76L16.03 9.65L13.16 9.65ZM25.20 12.01L25.20 13.27L21.91 13.27L21.91 6.69L25.20 6.69L25.20 7.95L27.16 7.95L27.16 5.95L25.54 5.01L21.57 5.01L19.95 5.95L19.95 14.01L21.57 14.95L25.54 14.95L27.16 14.01L27.16 12.01ZM37.03 14.01L37.03 5.95L35.41 5.01L31.02 5.01L29.40 5.95L29.40 14.01L31.02 14.95L35.41 14.95ZM31.36 6.69L35.07 6.69L35.07 13.27L31.36 13.27ZM47.04 13.94L47.04 6.02L45.42 5.08L39.41 5.08L39.41 14.88L45.42 14.88ZM41.37 6.76L45.08 6.76L45.08 13.20L41.37 13.20ZM51.38 10.68L54.45 10.68L54.45 9.00L51.38 9.00L51.38 6.76L55.29 6.76L55.29 5.08L49.42 5.08L49.42 14.88L55.29 14.88L55.29 13.20L51.38 13.20Z"/>
  </g>
  <g data-v-fde0c5aa="" id="a15bf61b-9b4d-461a-9ef4-47168e6ddfb1" stroke="none" fill="url(#fa43a7e7-befe-4f9b-9814-f0df99d8c15c)" transform="matrix(2.081939, 0, 0, 2.081939, 149.825789, 173.68778)">
    <path d="M2.83 18.247l26.34-9.124L2.83 0zM29.17 32V13.753L2.83 22.877z"/>
  </g>
  <g data-v-fde0c5aa="" id="d82ba286-d7a3-4555-973e-79a54fbe8ac6" fill="#000000" transform="matrix(1.033216, 0, 0, 1.033216, 222.905039, 215.10877)">
    <path d="M6.59 9.21L6.59 8.71L6.59 8.71Q6.59 8.23 6.41 7.87L6.41 7.87L6.41 7.87Q6.22 7.50 5.89 7.27L5.89 7.27L5.89 7.27Q5.57 7.03 5.15 6.90L5.15 6.90L5.15 6.90Q4.73 6.78 4.27 6.78L4.27 6.78L4.27 6.78Q3.86 6.78 3.50 6.88L3.50 6.88L3.50 6.88Q3.14 6.99 2.85 7.18L2.85 7.18L2.85 7.18Q2.56 7.38 2.39 7.66L2.39 7.66L2.39 7.66Q2.23 7.95 2.23 8.33L2.23 8.33L2.23 8.41L2.23 8.41Q2.23 8.82 2.39 9.11L2.39 9.11L2.39 9.11Q2.56 9.39 2.89 9.60L2.89 9.60L2.89 9.60Q3.22 9.80 3.71 9.93L3.71 9.93L3.71 9.93Q4.20 10.07 4.86 10.16L4.86 10.16L4.86 10.16Q6.40 10.40 7.13 11.07L7.13 11.07L7.13 11.07Q7.85 11.73 7.85 12.85L7.85 12.85L7.85 13.02L7.85 13.02Q7.85 13.65 7.64 14.17L7.64 14.17L7.64 14.17Q7.42 14.70 6.99 15.08L6.99 15.08L6.99 15.08Q6.57 15.46 5.94 15.67L5.94 15.67L5.94 15.67Q5.31 15.88 4.48 15.88L4.48 15.88L4.48 15.88Q3.54 15.88 2.82 15.60L2.82 15.60L2.82 15.60Q2.10 15.33 1.62 14.85L1.62 14.85L1.62 14.85Q1.13 14.36 0.88 13.71L0.88 13.71L0.88 13.71Q0.63 13.06 0.63 12.29L0.63 12.29L0.63 11.87L1.81 11.87L1.81 12.21L1.81 12.21Q1.81 13.50 2.51 14.14L2.51 14.14L2.51 14.14Q3.22 14.78 4.48 14.78L4.48 14.78L4.48 14.78Q5.57 14.78 6.13 14.30L6.13 14.30L6.13 14.30Q6.68 13.82 6.68 13.02L6.68 13.02L6.68 12.94L6.68 12.94Q6.68 12.17 6.11 11.76L6.11 11.76L6.11 11.76Q5.54 11.35 4.27 11.17L4.27 11.17L4.27 11.17Q3.53 11.07 2.93 10.87L2.93 10.87L2.93 10.87Q2.34 10.67 1.92 10.34L1.92 10.34L1.92 10.34Q1.50 10.01 1.27 9.55L1.27 9.55L1.27 9.55Q1.05 9.09 1.05 8.46L1.05 8.46L1.05 8.29L1.05 8.29Q1.05 7.71 1.29 7.24L1.29 7.24L1.29 7.24Q1.53 6.76 1.95 6.41L1.95 6.41L1.95 6.41Q2.38 6.06 2.98 5.87L2.98 5.87L2.98 5.87Q3.57 5.68 4.28 5.68L4.28 5.68L4.28 5.68Q5.11 5.68 5.76 5.92L5.76 5.92L5.76 5.92Q6.41 6.16 6.86 6.56L6.86 6.56L6.86 6.56Q7.31 6.96 7.54 7.50L7.54 7.50L7.54 7.50Q7.77 8.04 7.77 8.62L7.77 8.62L7.77 9.21L6.59 9.21ZM19.26 15.68L19.26 12.24L19.01 12.24L15.95 5.88L17.26 5.88L19.77 11.23L19.94 11.23L22.44 5.88L23.76 5.88L20.69 12.24L20.44 12.24L20.44 15.68L19.26 15.68ZM37.73 9.21L37.73 8.71L37.73 8.71Q37.73 8.23 37.54 7.87L37.54 7.87L37.54 7.87Q37.35 7.50 37.03 7.27L37.03 7.27L37.03 7.27Q36.71 7.03 36.29 6.90L36.29 6.90L36.29 6.90Q35.87 6.78 35.41 6.78L35.41 6.78L35.41 6.78Q35 6.78 34.64 6.88L34.64 6.88L34.64 6.88Q34.27 6.99 33.98 7.18L33.98 7.18L33.98 7.18Q33.70 7.38 33.53 7.66L33.53 7.66L33.53 7.66Q33.36 7.95 33.36 8.33L33.36 8.33L33.36 8.41L33.36 8.41Q33.36 8.82 33.53 9.11L33.53 9.11L33.53 9.11Q33.70 9.39 34.03 9.60L34.03 9.60L34.03 9.60Q34.36 9.80 34.85 9.93L34.85 9.93L34.85 9.93Q35.34 10.07 35.99 10.16L35.99 10.16L35.99 10.16Q37.53 10.40 38.26 11.07L38.26 11.07L38.26 11.07Q38.99 11.73 38.99 12.85L38.99 12.85L38.99 13.02L38.99 13.02Q38.99 13.65 38.77 14.17L38.77 14.17L38.77 14.17Q38.56 14.70 38.13 15.08L38.13 15.08L38.13 15.08Q37.70 15.46 37.07 15.67L37.07 15.67L37.07 15.67Q36.44 15.88 35.62 15.88L35.62 15.88L35.62 15.88Q34.68 15.88 33.96 15.60L33.96 15.60L33.96 15.60Q33.24 15.33 32.75 14.85L32.75 14.85L32.75 14.85Q32.27 14.36 32.02 13.71L32.02 13.71L32.02 13.71Q31.77 13.06 31.77 12.29L31.77 12.29L31.77 11.87L32.94 11.87L32.94 12.21L32.94 12.21Q32.94 13.50 33.65 14.14L33.65 14.14L33.65 14.14Q34.36 14.78 35.62 14.78L35.62 14.78L35.62 14.78Q36.71 14.78 37.26 14.30L37.26 14.30L37.26 14.30Q37.81 13.82 37.81 13.02L37.81 13.02L37.81 12.94L37.81 12.94Q37.81 12.17 37.25 11.76L37.25 11.76L37.25 11.76Q36.68 11.35 35.41 11.17L35.41 11.17L35.41 11.17Q34.66 11.07 34.07 10.87L34.07 10.87L34.07 10.87Q33.47 10.67 33.05 10.34L33.05 10.34L33.05 10.34Q32.63 10.01 32.41 9.55L32.41 9.55L32.41 9.55Q32.19 9.09 32.19 8.46L32.19 8.46L32.19 8.29L32.19 8.29Q32.19 7.71 32.42 7.24L32.42 7.24L32.42 7.24Q32.66 6.76 33.09 6.41L33.09 6.41L33.09 6.41Q33.52 6.06 34.11 5.87L34.11 5.87L34.11 5.87Q34.71 5.68 35.42 5.68L35.42 5.68L35.42 5.68Q36.25 5.68 36.90 5.92L36.90 5.92L36.90 5.92Q37.55 6.16 38.00 6.56L38.00 6.56L38.00 6.56Q38.44 6.96 38.67 7.50L38.67 7.50L38.67 7.50Q38.91 8.04 38.91 8.62L38.91 8.62L38.91 9.21L37.73 9.21ZM47.54 6.97L47.54 5.88L54.43 5.88L54.43 6.97L51.58 6.97L51.58 15.68L50.40 15.68L50.40 6.97L47.54 6.97ZM63.59 15.68L63.59 5.88L69.52 5.88L69.52 6.97L64.76 6.97L64.76 10.22L69.44 10.22L69.44 11.31L64.76 11.31L64.76 14.59L69.61 14.59L69.61 15.68L63.59 15.68ZM78.48 15.68L78.48 5.88L80.72 5.88L82.04 15.18L82.21 15.18L83.52 5.88L85.76 5.88L85.76 15.68L84.67 15.68L84.67 6.38L84.50 6.38L83.19 15.68L81.06 15.68L79.74 6.38L79.58 6.38L79.58 15.68L78.48 15.68ZM100.51 15.68L99.79 13.24L95.59 13.24L94.88 15.68L93.62 15.68L96.59 5.88L98.80 5.88L101.77 15.68L100.51 15.68ZM97.78 6.38L97.61 6.38L95.91 12.15L99.47 12.15L97.78 6.38ZM109.82 6.97L109.82 5.88L116.70 5.88L116.70 6.97L113.85 6.97L113.85 15.68L112.67 15.68L112.67 6.97L109.82 6.97ZM125.72 6.97L125.72 5.88L131.94 5.88L131.94 6.97L129.42 6.97L129.42 14.59L131.94 14.59L131.94 15.68L125.72 15.68L125.72 14.59L128.24 14.59L128.24 6.97L125.72 6.97ZM144.45 14.78L144.45 14.78L144.45 14.78Q145.05 14.78 145.48 14.58L145.48 14.58L145.48 14.58Q145.91 14.38 146.18 14.04L146.18 14.04L146.18 14.04Q146.45 13.69 146.59 13.25L146.59 13.25L146.59 13.25Q146.72 12.81 146.72 12.32L146.72 12.32L146.72 12.15L147.90 12.15L147.90 12.32L147.90 12.32Q147.90 13.06 147.67 13.71L147.67 13.71L147.67 13.71Q147.45 14.36 147.01 14.85L147.01 14.85L147.01 14.85Q146.58 15.33 145.94 15.60L145.94 15.60L145.94 15.60Q145.29 15.88 144.45 15.88L144.45 15.88L144.45 15.88Q142.83 15.88 141.92 14.85L141.92 14.85L141.92 14.85Q141.01 13.83 141.01 11.87L141.01 11.87L141.01 9.69L141.01 9.69Q141.01 7.78 141.92 6.73L141.92 6.73L141.92 6.73Q142.83 5.68 144.45 5.68L144.45 5.68L144.45 5.68Q145.29 5.68 145.94 5.96L145.94 5.96L145.94 5.96Q146.58 6.23 147.01 6.71L147.01 6.71L147.01 6.71Q147.45 7.20 147.67 7.85L147.67 7.85L147.67 7.85Q147.90 8.50 147.90 9.24L147.90 9.24L147.90 9.41L146.72 9.41L146.72 9.24L146.72 9.24Q146.71 8.76 146.57 8.32L146.57 8.32L146.57 8.32Q146.44 7.87 146.17 7.53L146.17 7.53L146.17 7.53Q145.89 7.18 145.47 6.98L145.47 6.98L145.47 6.98Q145.05 6.78 144.45 6.78L144.45 6.78L144.45 6.78Q143.32 6.78 142.75 7.60L142.75 7.60L142.75 7.60Q142.18 8.43 142.18 9.77L142.18 9.77L142.18 11.79L142.18 11.79Q142.18 13.23 142.75 14.01L142.75 14.01L142.75 14.01Q143.32 14.78 144.45 14.78Z"/>
  </g>
</svg>