<svg xmlns="http://www.w3.org/2000/svg" xml:space="preserve" viewBox="0 0 120 37">
  <path d="M239.5 183.22v22.64h-10.43v-22.64h-5.51v25.11l4.55 2.65h12.35l4.56-2.65v-25.11Zm12.21 27.56h5.51v-9.98h9.03l4.56-2.65v-12.29l-4.56-2.64h-14.54Zm5.51-22.84h8.07v8.13h-8.07Zm33.87 14.77v3.54h-9.26v-18.5h9.26v3.54h5.5v-5.63l-4.55-2.64h-11.16l-4.56 2.64v22.67l4.56 2.65h11.16l4.56-2.65v-5.62Zm33.27 5.62v-22.67l-4.56-2.64h-12.34l-4.56 2.64v22.67l4.56 2.65h12.34Zm-15.95-20.58h10.44v18.5H308.4Zm44.1 20.39v-22.28l-4.55-2.64h-16.9v27.56h16.9Zm-15.94-20.2H347v18.12h-10.43Zm28.15 11.03h8.64v-4.73h-8.64v-6.3h11v-4.72H359.2v27.56h16.5v-4.72h-10.99Z" style="is-custom-font:none;font-file-url:none" transform="matrix(.539 0 0 .539 -83.38 -93.07)" />
  <g transform="translate(15.34 18.52) scale(1.1223)">
    <linearGradient id="a" x1="0" x2="1" y1="0" y2="0" gradientTransform="rotate(25 -28.09 44.09)" gradientUnits="objectBoundingBox">
      <stop offset="0%" stop-color="#3e6e81" />
      <stop offset="100%" stop-color="#4587a1" />
    </linearGradient>
    <path fill="url(#a)" d="m2.83 18.25 26.34-9.13L2.83 0zM29.17 32V13.75L2.83 22.88z" style="is-custom-font:none;font-file-url:none" transform="translate(-16 -16)" />
  </g>
  <path d="M229.71 224.62v-.51q0-.5-.18-.87-.2-.38-.54-.62-.33-.25-.76-.38-.44-.13-.91-.13-.43 0-.8.1-.37.12-.67.32-.3.2-.48.5-.16.3-.16.69v.08q0 .42.16.72.18.3.52.5.34.21.85.35.5.14 1.19.24 1.59.24 2.34.94.75.68.75 1.84v.17q0 .65-.22 1.19-.23.55-.67.94-.44.4-1.09.6-.65.23-1.5.23-.98 0-1.72-.3-.75-.27-1.24-.77-.5-.5-.77-1.18-.25-.67-.25-1.46v-.44h1.22v.35q0 1.34.72 2 .73.66 2.03.66 1.13 0 1.7-.5.58-.5.58-1.32v-.08q0-.8-.6-1.22-.58-.42-1.9-.61-.76-.1-1.38-.31-.6-.2-1.04-.55-.44-.34-.67-.81-.23-.48-.23-1.13v-.18q0-.6.25-1.08.25-.5.68-.86.44-.36 1.06-.56.61-.2 1.35-.2.85 0 1.53.26.67.24 1.13.66.47.41.7.97.24.56.24 1.16v.6h-1.22Zm13.1 6.69v-3.55h-.26l-3.17-6.58h1.36l2.6 5.53h.17l2.58-5.53h1.36l-3.17 6.58h-.26v3.55h-1.22Zm19.08-6.69v-.51q0-.5-.2-.87-.2-.38-.52-.62-.34-.25-.77-.38t-.9-.13q-.43 0-.8.1-.39.12-.69.32-.29.2-.46.5-.18.3-.18.69v.08q0 .42.18.72.17.3.52.5.34.21.84.35.5.14 1.18.24 1.6.24 2.35.94.75.68.75 1.84v.17q0 .65-.23 1.19-.21.55-.66.94-.44.4-1.1.6-.64.23-1.5.23-.96 0-1.7-.3-.75-.27-1.26-.77-.5-.5-.75-1.18-.26-.67-.26-1.46v-.44h1.2v.35q0 1.34.74 2 .74.66 2.04.66 1.12 0 1.7-.5.56-.5.56-1.32v-.08q0-.8-.58-1.22-.59-.42-1.9-.61-.77-.1-1.38-.31-.62-.2-1.06-.55-.43-.34-.66-.81-.23-.48-.23-1.13v-.18q0-.6.24-1.08.25-.5.7-.86.44-.36 1.05-.56.62-.2 1.35-.2.86 0 1.53.26.67.24 1.14.66.45.41.69.97.25.56.25 1.16v.6h-1.22Zm10.13-2.31v-1.13h7.12v1.13h-2.94v9h-1.22v-9h-2.96Zm16.59 9v-10.13h6.12v1.13h-4.91v3.36h4.83v1.12h-4.83v3.4h5v1.12h-6.21Zm15.38 0v-10.13h2.32l1.36 9.61h.18l1.35-9.6h2.31v10.12h-1.12v-9.6h-.18l-1.35 9.6h-2.2l-1.37-9.6h-.16v9.6h-1.14Zm22.76 0-.74-2.52h-4.34l-.73 2.52h-1.3l3.06-10.13h2.3l3.07 10.13h-1.3Zm-2.82-9.6h-.17l-1.76 5.95h3.68l-1.75-5.96Zm12.44.6v-1.13h7.11v1.13h-2.94v9h-1.22v-9h-2.95Zm16.43 0v-1.13h6.43v1.13h-2.6v7.87h2.6v1.13h-6.43v-1.13h2.6v-7.87h-2.6Zm19.35 8.07q.62 0 1.07-.2.44-.21.72-.56.28-.37.42-.82.14-.46.14-.96v-.18h1.22v.18q0 .76-.24 1.43-.23.68-.68 1.18-.45.5-1.1.78-.68.29-1.55.29-1.67 0-2.61-1.07-.94-1.05-.94-3.08v-2.25q0-1.97.94-3.06.94-1.08 2.61-1.08.87 0 1.54.29.66.28 1.1.77.46.5.69 1.18.24.67.24 1.44v.17h-1.22v-.17q-.01-.5-.16-.95-.13-.47-.41-.82-.29-.36-.72-.57-.44-.2-1.06-.2-1.16 0-1.75.84-.6.86-.6 2.24v2.09q0 1.49.6 2.3.59.79 1.75.79Z" style="is-custom-font:none;font-file-url:none" transform="matrix(.539 0 0 .539 -83.38 -93.07)" />
</svg>
